<svg width="525" height="93" viewBox="0 0 525 93" fill="none" xmlns="http://www.w3.org/2000/svg">
<path d="M0 91.4586L42.457 1.54143H64.2298L106.823 91.4586H83.6892L48.8527 12.0746H57.5619L22.5893 91.4586H0ZM21.2285 72.1906L27.0799 56.3909H76.0687L82.0563 72.1906H21.2285Z" fill="white"/>
<path d="M148.004 93C140.384 93 133.081 92.058 126.095 90.174C119.11 88.2044 113.485 85.6782 109.221 82.5953L116.706 66.924C120.788 69.6644 125.596 71.9337 131.13 73.732C136.755 75.4447 142.425 76.3011 148.14 76.3011C152.495 76.3011 155.987 75.9157 158.618 75.145C161.34 74.2887 163.336 73.1326 164.606 71.6768C165.876 70.221 166.511 68.5511 166.511 66.6671C166.511 64.2693 165.513 62.3854 163.517 61.0152C161.521 59.5594 158.89 58.4033 155.625 57.547C152.359 56.605 148.73 55.7486 144.738 54.9779C140.837 54.1215 136.891 53.0939 132.899 51.895C128.998 50.6961 125.415 49.1547 122.149 47.2707C118.883 45.3867 116.207 42.9033 114.12 39.8204C112.124 36.7376 111.126 32.7983 111.126 28.0028C111.126 22.8646 112.578 18.1975 115.481 14.0014C118.475 9.71961 122.92 6.33701 128.817 3.85359C134.804 1.28453 142.289 0 151.27 0C157.258 0 163.154 0.685082 168.96 2.05525C174.766 3.33977 179.892 5.30939 184.337 7.96409L177.533 23.7638C173.088 21.366 168.643 19.6105 164.198 18.4972C159.752 17.2983 155.398 16.6989 151.134 16.6989C146.87 16.6989 143.377 17.1699 140.656 18.1119C137.934 19.0539 135.984 20.2956 134.804 21.837C133.625 23.2928 133.035 25.0055 133.035 26.9751C133.035 29.2873 134.033 31.1713 136.029 32.6271C138.025 33.9972 140.656 35.1105 143.922 35.9669C147.188 36.8232 150.771 37.6796 154.672 38.5359C158.664 39.3923 162.61 40.3771 166.511 41.4903C170.503 42.6036 174.131 44.1022 177.397 45.9862C180.663 47.8702 183.294 50.3536 185.29 53.4365C187.377 56.5193 188.42 60.4157 188.42 65.1257C188.42 70.1782 186.923 74.8025 183.929 78.9986C180.935 83.1947 176.445 86.5773 170.457 89.1464C164.56 91.7155 157.076 93 148.004 93Z" fill="white"/>
<path d="M203.483 91.4586V1.54143H221.718L262.27 64.9972H252.608L292.48 1.54143H310.578L310.85 91.4586H290.166L290.03 31.471H293.84L261.998 81.953H252.064L219.541 31.471H224.167V91.4586H203.483Z" fill="white"/>
<path d="M320.931 91.4586L363.388 1.54143H385.161L427.754 91.4586H404.62L369.784 12.0746H378.493L343.52 91.4586H320.931ZM342.159 72.1906L348.011 56.3909H397L402.987 72.1906H342.159Z" fill="white"/>
<path d="M437.637 91.4586V1.54143H455.871L512.072 66.2818H503.227V1.54143H525V91.4586H506.901L450.564 26.7182H459.409V91.4586H437.637Z" fill="white"/>
</svg>
